<svg width="252" height="25" viewBox="0 0 252 25" fill="none" xmlns="http://www.w3.org/2000/svg">
<path d="M32.602 19V6.22H36.94C38.296 6.22 39.424 6.508 40.324 7.084C41.236 7.648 41.92 8.416 42.376 9.388C42.832 10.348 43.06 11.416 43.06 12.592C43.06 13.888 42.808 15.016 42.304 15.976C41.8 16.936 41.092 17.68 40.18 18.208C39.268 18.736 38.188 19 36.94 19H32.602ZM41.8 12.592C41.8 11.572 41.608 10.666 41.224 9.874C40.852 9.082 40.3 8.464 39.568 8.02C38.848 7.564 37.972 7.336 36.94 7.336H33.862V17.884H36.94C37.996 17.884 38.884 17.65 39.604 17.182C40.324 16.714 40.87 16.084 41.242 15.292C41.614 14.5 41.8 13.6 41.8 12.592ZM47.2692 19V6.22H48.5292V19H47.2692ZM57.494 6.22H58.556L63.866 19H62.534L60.878 15.004H55.136L53.498 19H52.148L57.494 6.22ZM60.59 14.014L58.016 7.696L55.406 14.014H60.59ZM78.8201 19V8.596L74.1941 16.678H73.4021L68.7581 8.596V19H67.4981V6.22H68.7941L73.7801 14.968L78.8021 6.22H80.0801V19H78.8201ZM90.2313 19.09C89.3313 19.09 88.5153 18.91 87.7833 18.55C87.0513 18.178 86.4213 17.686 85.8933 17.074C85.3653 16.462 84.9573 15.772 84.6693 15.004C84.3813 14.224 84.2373 13.426 84.2373 12.61C84.2373 11.758 84.3873 10.948 84.6873 10.18C84.9873 9.4 85.4073 8.71 85.9473 8.11C86.4993 7.498 87.1413 7.018 87.8733 6.67C88.6053 6.31 89.3973 6.13 90.2493 6.13C91.1373 6.13 91.9473 6.316 92.6793 6.688C93.4113 7.06 94.0413 7.558 94.5693 8.182C95.1093 8.806 95.5173 9.502 95.7933 10.27C96.0813 11.038 96.2253 11.824 96.2253 12.628C96.2253 13.48 96.0753 14.296 95.7753 15.076C95.4753 15.844 95.0553 16.534 94.5153 17.146C93.9753 17.746 93.3393 18.22 92.6073 18.568C91.8753 18.916 91.0833 19.09 90.2313 19.09ZM85.4973 12.61C85.4973 13.306 85.6113 13.972 85.8393 14.608C86.0673 15.244 86.3913 15.814 86.8113 16.318C87.2313 16.822 87.7293 17.224 88.3053 17.524C88.8933 17.812 89.5353 17.956 90.2313 17.956C90.9633 17.956 91.6173 17.806 92.1933 17.506C92.7813 17.194 93.2793 16.78 93.6873 16.264C94.1073 15.748 94.4253 15.178 94.6413 14.554C94.8573 13.918 94.9653 13.27 94.9653 12.61C94.9653 11.914 94.8513 11.248 94.6233 10.612C94.3953 9.976 94.0653 9.406 93.6333 8.902C93.2133 8.398 92.7153 8.002 92.1393 7.714C91.5633 7.426 90.9273 7.282 90.2313 7.282C89.5113 7.282 88.8573 7.432 88.2693 7.732C87.6933 8.032 87.1953 8.44 86.7753 8.956C86.3673 9.46 86.0493 10.03 85.8213 10.666C85.6053 11.302 85.4973 11.95 85.4973 12.61ZM101.661 8.542V19H100.401V6.22H101.445L109.833 16.876V6.238H111.093V19H109.923L101.661 8.542ZM116.105 19V6.22H120.443C121.799 6.22 122.927 6.508 123.827 7.084C124.739 7.648 125.423 8.416 125.879 9.388C126.335 10.348 126.563 11.416 126.563 12.592C126.563 13.888 126.311 15.016 125.807 15.976C125.303 16.936 124.595 17.68 123.683 18.208C122.771 18.736 121.691 19 120.443 19H116.105ZM125.303 12.592C125.303 11.572 125.111 10.666 124.727 9.874C124.355 9.082 123.803 8.464 123.071 8.02C122.351 7.564 121.475 7.336 120.443 7.336H117.365V17.884H120.443C121.499 17.884 122.387 17.65 123.107 17.182C123.827 16.714 124.373 16.084 124.745 15.292C125.117 14.5 125.303 13.6 125.303 12.592ZM144.63 8.614C144.27 8.218 143.79 7.894 143.19 7.642C142.59 7.378 141.906 7.246 141.138 7.246C140.01 7.246 139.188 7.462 138.672 7.894C138.156 8.314 137.898 8.89 137.898 9.622C137.898 10.126 138.024 10.522 138.276 10.81C138.528 11.098 138.912 11.338 139.428 11.53C139.956 11.71 140.628 11.89 141.444 12.07C142.356 12.262 143.142 12.49 143.802 12.754C144.462 13.018 144.972 13.378 145.332 13.834C145.692 14.278 145.872 14.884 145.872 15.652C145.872 16.432 145.674 17.08 145.278 17.596C144.882 18.112 144.336 18.496 143.64 18.748C142.944 18.988 142.152 19.108 141.264 19.108C139.272 19.108 137.562 18.49 136.134 17.254L136.764 16.228C137.22 16.708 137.844 17.122 138.636 17.47C139.44 17.818 140.328 17.992 141.3 17.992C142.308 17.992 143.1 17.806 143.676 17.434C144.252 17.062 144.54 16.51 144.54 15.778C144.54 15.25 144.396 14.83 144.108 14.518C143.82 14.194 143.388 13.93 142.812 13.726C142.236 13.522 141.528 13.324 140.688 13.132C139.8 12.928 139.05 12.7 138.438 12.448C137.838 12.196 137.382 11.866 137.07 11.458C136.758 11.05 136.602 10.498 136.602 9.802C136.602 9.01 136.794 8.344 137.178 7.804C137.574 7.252 138.114 6.838 138.798 6.562C139.482 6.274 140.268 6.13 141.156 6.13C141.996 6.13 142.752 6.262 143.424 6.526C144.096 6.778 144.702 7.138 145.242 7.606L144.63 8.614ZM155.042 19.09C154.142 19.09 153.326 18.91 152.594 18.55C151.862 18.178 151.232 17.686 150.704 17.074C150.176 16.462 149.768 15.772 149.48 15.004C149.192 14.224 149.048 13.426 149.048 12.61C149.048 11.758 149.198 10.948 149.498 10.18C149.798 9.4 150.218 8.71 150.758 8.11C151.31 7.498 151.952 7.018 152.684 6.67C153.416 6.31 154.208 6.13 155.06 6.13C155.948 6.13 156.758 6.316 157.49 6.688C158.222 7.06 158.852 7.558 159.38 8.182C159.92 8.806 160.328 9.502 160.604 10.27C160.892 11.038 161.036 11.824 161.036 12.628C161.036 13.48 160.886 14.296 160.586 15.076C160.286 15.844 159.866 16.534 159.326 17.146C158.786 17.746 158.15 18.22 157.418 18.568C156.686 18.916 155.894 19.09 155.042 19.09ZM150.308 12.61C150.308 13.306 150.422 13.972 150.65 14.608C150.878 15.244 151.202 15.814 151.622 16.318C152.042 16.822 152.54 17.224 153.116 17.524C153.704 17.812 154.346 17.956 155.042 17.956C155.774 17.956 156.428 17.806 157.004 17.506C157.592 17.194 158.09 16.78 158.498 16.264C158.918 15.748 159.236 15.178 159.452 14.554C159.668 13.918 159.776 13.27 159.776 12.61C159.776 11.914 159.662 11.248 159.434 10.612C159.206 9.976 158.876 9.406 158.444 8.902C158.024 8.398 157.526 8.002 156.95 7.714C156.374 7.426 155.738 7.282 155.042 7.282C154.322 7.282 153.668 7.432 153.08 7.732C152.504 8.032 152.006 8.44 151.586 8.956C151.178 9.46 150.86 10.03 150.632 10.666C150.416 11.302 150.308 11.95 150.308 12.61ZM165.211 19V6.22H166.471V17.884H173.851V19H165.211ZM182.145 19.09C181.137 19.09 180.285 18.91 179.589 18.55C178.905 18.19 178.353 17.704 177.933 17.092C177.513 16.48 177.213 15.796 177.033 15.04C176.853 14.272 176.763 13.48 176.763 12.664V6.22H178.005V12.664C178.005 13.336 178.071 13.99 178.203 14.626C178.347 15.25 178.575 15.814 178.887 16.318C179.199 16.822 179.619 17.224 180.147 17.524C180.675 17.812 181.335 17.956 182.127 17.956C182.943 17.956 183.615 17.806 184.143 17.506C184.683 17.206 185.109 16.804 185.421 16.3C185.733 15.784 185.949 15.214 186.069 14.59C186.201 13.954 186.267 13.312 186.267 12.664V6.22H187.527V12.664C187.527 13.516 187.431 14.332 187.239 15.112C187.047 15.88 186.735 16.564 186.303 17.164C185.883 17.764 185.331 18.238 184.647 18.586C183.963 18.922 183.129 19.09 182.145 19.09ZM201.403 7.336H196.849V19H195.589V7.336H191.035V6.22H201.403V7.336ZM205.117 19V6.22H206.377V19H205.117ZM216.53 19.09C215.63 19.09 214.814 18.91 214.082 18.55C213.35 18.178 212.72 17.686 212.192 17.074C211.664 16.462 211.256 15.772 210.968 15.004C210.68 14.224 210.536 13.426 210.536 12.61C210.536 11.758 210.686 10.948 210.986 10.18C211.286 9.4 211.706 8.71 212.246 8.11C212.798 7.498 213.44 7.018 214.172 6.67C214.904 6.31 215.696 6.13 216.548 6.13C217.436 6.13 218.246 6.316 218.978 6.688C219.71 7.06 220.34 7.558 220.868 8.182C221.408 8.806 221.816 9.502 222.092 10.27C222.38 11.038 222.524 11.824 222.524 12.628C222.524 13.48 222.374 14.296 222.074 15.076C221.774 15.844 221.354 16.534 220.814 17.146C220.274 17.746 219.638 18.22 218.906 18.568C218.174 18.916 217.382 19.09 216.53 19.09ZM211.796 12.61C211.796 13.306 211.91 13.972 212.138 14.608C212.366 15.244 212.69 15.814 213.11 16.318C213.53 16.822 214.028 17.224 214.604 17.524C215.192 17.812 215.834 17.956 216.53 17.956C217.262 17.956 217.916 17.806 218.492 17.506C219.08 17.194 219.578 16.78 219.986 16.264C220.406 15.748 220.724 15.178 220.94 14.554C221.156 13.918 221.264 13.27 221.264 12.61C221.264 11.914 221.15 11.248 220.922 10.612C220.694 9.976 220.364 9.406 219.932 8.902C219.512 8.398 219.014 8.002 218.438 7.714C217.862 7.426 217.226 7.282 216.53 7.282C215.81 7.282 215.156 7.432 214.568 7.732C213.992 8.032 213.494 8.44 213.074 8.956C212.666 9.46 212.348 10.03 212.12 10.666C211.904 11.302 211.796 11.95 211.796 12.61ZM227.96 8.542V19H226.7V6.22H227.744L236.132 16.876V6.238H237.392V19H236.222L227.96 8.542ZM249.874 8.614C249.514 8.218 249.034 7.894 248.434 7.642C247.834 7.378 247.15 7.246 246.382 7.246C245.254 7.246 244.432 7.462 243.916 7.894C243.4 8.314 243.142 8.89 243.142 9.622C243.142 10.126 243.268 10.522 243.52 10.81C243.772 11.098 244.156 11.338 244.672 11.53C245.2 11.71 245.872 11.89 246.688 12.07C247.6 12.262 248.386 12.49 249.046 12.754C249.706 13.018 250.216 13.378 250.576 13.834C250.936 14.278 251.116 14.884 251.116 15.652C251.116 16.432 250.918 17.08 250.522 17.596C250.126 18.112 249.58 18.496 248.884 18.748C248.188 18.988 247.396 19.108 246.508 19.108C244.516 19.108 242.806 18.49 241.378 17.254L242.008 16.228C242.464 16.708 243.088 17.122 243.88 17.47C244.684 17.818 245.572 17.992 246.544 17.992C247.552 17.992 248.344 17.806 248.92 17.434C249.496 17.062 249.784 16.51 249.784 15.778C249.784 15.25 249.64 14.83 249.352 14.518C249.064 14.194 248.632 13.93 248.056 13.726C247.48 13.522 246.772 13.324 245.932 13.132C245.044 12.928 244.294 12.7 243.682 12.448C243.082 12.196 242.626 11.866 242.314 11.458C242.002 11.05 241.846 10.498 241.846 9.802C241.846 9.01 242.038 8.344 242.422 7.804C242.818 7.252 243.358 6.838 244.042 6.562C244.726 6.274 245.512 6.13 246.4 6.13C247.24 6.13 247.996 6.262 248.668 6.526C249.34 6.778 249.946 7.138 250.486 7.606L249.874 8.614Z" fill="white"/>
<path d="M24.3085 10.0975H18.409L14.0625 20.965L24.3085 10.0975Z" fill="white"/>
<path d="M0.699997 10.0975L10.882 20.745L6.81953 10.0975H0.699997Z" fill="white"/>
<path d="M16.997 10.0975H8.22151L12.5065 21.327L16.997 10.0975Z" fill="white"/>
<path d="M11.368 3.673H5.04344L7.98294 7.70898L11.368 3.673Z" fill="white"/>
<path d="M19.8095 3.673H13.134L16.409 7.6915L19.8095 3.673Z" fill="white"/>
<path d="M0.569534 8.77155H7.13653L4.06651 4.55655L0.569534 8.77155Z" fill="white"/>
<path d="M24.4305 8.77152L20.8555 4.464L17.211 8.77152H24.4305Z" fill="white"/>
<path d="M8.80151 8.77151H15.5995L12.2495 4.66205L8.80151 8.77151Z" fill="white"/>
</svg>
